<svg xmlns="http://www.w3.org/2000/svg" width="1em" height="1em" viewBox="0 0 24 24">
    <!-- <g id="phoneVolume">
        <path fill="currentColor"
            d="M13.125 0C19.005 0 24 5.167 24 11.333c0 0.646-0.518 1.167-1.167 1.167s-1.167-0.518-1.167-1.167c0-5.065-4.108-9.167-9.167-9.167c-0.646 0-1.167-0.518-1.167-1.167S11.313 0 13.125 0zM13.5 9.167a1.5 1.5 0 1 1 0 3 1.5 1.5 0 1 1 0-3zm-1.5-3.333c0-0.646 0.518-1.167 1.167-1.167c3.646 0 6.5 2.943 6.5 6.5c0 0.646-0.518 1.167-1.167 1.167S16.833 12.813 16.833 12.167c0-2.318-1.882-4.167-4.167-4.167c-0.646 0-1.167-0.518-1.167-1.167zM5.479 0.058c0.97-0.265 1.985 0.237 2.371 1.196l2 4.8c0.34 0.815 0.105 1.76-0.58 2.315L7.2 10.367c1.667 3.52 4.518 6.375 8.033 8.033L17.25 15.933c0.56-0.685 1.5-0.92 2.315-0.58l4.8 2c0.93 0.385 1.425 1.4 1.165 2.371l-1.2 4.4C24.09 20.83 23.3 21.333 22.4 21.333C10.033 21.333 0 11.3 0 1.333C0 0.383 0.483-0.133 1.229-0.48l4.25-1.146z" />
    </g> -->
    <g transform="scale(0.046875, 0.046875) translate(-10, -10)" id="phoneVolume">
        <path fill="currentColor"
            d="M280 0C408.1 0 512 103.9 512 232c0 13.3-10.7 24-24 24s-24-10.7-24-24c0-101.6-82.4-184-184-184c-13.3 0-24-10.7-24-24s10.7-24 24-24zm8 192a32 32 0 1 1 0 64 32 32 0 1 1 0-64zm-32-72c0-13.3 10.7-24 24-24c75.1 0 136 60.9 136 136c0 13.3-10.7 24-24 24s-24-10.7-24-24c0-48.6-39.4-88-88-88c-13.3 0-24-10.7-24-24zM117.5 1.4c19.4-5.3 39.7 4.6 47.4 23.2l40 96c6.8 16.3 2.1 35.2-11.6 46.3L144 207.3c33.3 70.4 90.3 127.4 160.7 160.7L345 318.7c11.2-13.7 30-18.4 46.3-11.6l96 40c18.6 7.7 28.5 28 23.2 47.4l-24 88C481.8 499.9 466 512 448 512C200.6 512 0 311.4 0 64C0 46 12.1 30.2 29.5 25.4l88-24z" />
    </g>
</svg>
